<svg id="Layer_1" data-name="Layer 1" xmlns="http://www.w3.org/2000/svg" viewBox="0 0 100 100"><defs><style>.cls-1,.cls-3,.cls-5{fill:none;}.cls-1{stroke:#f8b133;stroke-width:2px;}.cls-1,.cls-3,.cls-4,.cls-5{stroke-miterlimit:10;}.cls-2{fill:#f8b133;}.cls-3,.cls-4,.cls-5{stroke:#000;}.cls-3,.cls-4{stroke-width:0.5px;}.cls-4{fill:#f1f1f3;}.cls-5{stroke-width:0.75px;}</style></defs><polyline class="cls-1" points="80.09 66.63 91.47 66.63 91.47 94.36 63.75 94.36 63.75 80.59"/><rect class="cls-2" x="71.08" y="73.97" width="13.06" height="13.06"/><polyline class="cls-1" points="28.6 35.66 7.85 35.66 7.85 7.94 35.58 7.94 35.58 29.2"/><rect class="cls-2" x="15.18" y="15.27" width="13.06" height="13.06"/><rect class="cls-3" x="28.7" y="29.2" width="42.61" height="42.61"/><rect class="cls-4" x="31.26" y="20.42" width="37.55" height="8.78"/><rect class="cls-4" x="31.26" y="71.81" width="37.55" height="8.78"/><rect class="cls-4" x="56.92" y="46.11" width="37.55" height="8.78" transform="translate(25.19 126.2) rotate(-90)"/><rect class="cls-4" x="5.53" y="46.11" width="37.55" height="8.78" transform="translate(-26.19 74.81) rotate(-90)"/><circle class="cls-2" cx="50.56" cy="51.36" r="12.01"/><line class="cls-3" x1="48.72" y1="54.95" x2="51.23" y2="47.78"/><polyline class="cls-3" points="46.54 48.96 44.05 51.36 46.54 53.65"/><polyline class="cls-3" points="53.79 53.68 56.28 51.27 53.79 48.99"/><line class="cls-3" x1="42.03" y1="20.5" x2="42.03" y2="7.94"/><line class="cls-3" x1="50.34" y1="20.5" x2="50.34" y2="7.94"/><line class="cls-3" x1="58.4" y1="20.5" x2="58.4" y2="7.94"/><rect class="cls-5" x="39.09" y="2.05" width="5.89" height="5.89"/><rect x="40.64" y="3.8" width="2.77" height="2.77"/><rect class="cls-5" x="47.39" y="2.05" width="5.89" height="5.89"/><rect x="48.95" y="3.8" width="2.77" height="2.77"/><rect class="cls-5" x="55.46" y="2.05" width="5.89" height="5.89"/><rect x="57.01" y="3.8" width="2.77" height="2.77"/><rect class="cls-5" x="62.05" y="34.53" width="4.33" height="4.33"/><rect x="63.2" y="35.81" width="2.04" height="2.04"/><rect class="cls-5" x="34.27" y="34.53" width="4.33" height="4.33"/><rect x="35.42" y="35.81" width="2.04" height="2.04"/><rect class="cls-5" x="62.05" y="62.3" width="4.33" height="4.33"/><rect x="63.2" y="63.59" width="2.04" height="2.04"/><rect class="cls-5" x="34.27" y="62.3" width="4.33" height="4.33"/><rect x="35.42" y="63.59" width="2.04" height="2.04"/><circle cx="36.44" cy="43.89" r="0.7"/><circle cx="36.44" cy="50.5" r="0.7"/><circle cx="36.44" cy="57.36" r="0.7"/><circle cx="57.08" cy="65.31" r="0.7"/><circle cx="50.46" cy="65.31" r="0.7"/><circle cx="43.6" cy="65.31" r="0.7"/><circle cx="57.2" cy="36.69" r="0.7"/><circle cx="50.58" cy="36.69" r="0.7"/><circle cx="43.72" cy="36.69" r="0.7"/><circle cx="64.22" cy="43.77" r="0.7"/><circle cx="64.22" cy="50.38" r="0.7"/><circle cx="64.22" cy="57.24" r="0.7"/><line class="cls-3" x1="80.09" y1="42.32" x2="92.64" y2="42.32"/><line class="cls-3" x1="80.09" y1="50.63" x2="92.64" y2="50.63"/><line class="cls-3" x1="80.09" y1="58.69" x2="92.64" y2="58.69"/><rect class="cls-5" x="92.64" y="39.37" width="5.89" height="5.89" transform="translate(137.91 -53.27) rotate(90)"/><rect x="94.01" y="40.93" width="2.77" height="2.77" transform="translate(137.71 -53.08) rotate(90)"/><rect class="cls-5" x="92.64" y="47.68" width="5.89" height="5.89" transform="translate(146.22 -44.96) rotate(90)"/><rect x="94.01" y="49.24" width="2.77" height="2.77" transform="translate(146.02 -44.77) rotate(90)"/><rect class="cls-5" x="92.64" y="55.74" width="5.89" height="5.89" transform="translate(154.28 -36.9) rotate(90)"/><rect x="94.01" y="57.3" width="2.77" height="2.77" transform="translate(154.08 -36.71) rotate(90)"/><line class="cls-3" x1="58.22" y1="80.59" x2="58.22" y2="93.14"/><line class="cls-3" x1="49.91" y1="80.59" x2="49.91" y2="93.14"/><line class="cls-3" x1="41.85" y1="80.59" x2="41.85" y2="93.14"/><rect class="cls-5" x="55.27" y="93.14" width="5.89" height="5.89" transform="translate(116.44 192.18) rotate(180)"/><rect x="56.83" y="94.51" width="2.77" height="2.77" transform="translate(116.44 191.79) rotate(180)"/><rect class="cls-5" x="46.96" y="93.14" width="5.89" height="5.89" transform="translate(99.82 192.18) rotate(180)"/><rect x="48.52" y="94.51" width="2.77" height="2.77" transform="translate(99.82 191.79) rotate(180)"/><rect class="cls-5" x="38.9" y="93.14" width="5.89" height="5.89" transform="translate(83.7 192.18) rotate(180)"/><rect x="40.46" y="94.51" width="2.77" height="2.77" transform="translate(83.7 191.79) rotate(180)"/><line class="cls-3" x1="19.92" y1="58.81" x2="7.36" y2="58.81"/><line class="cls-3" x1="19.92" y1="50.5" x2="7.36" y2="50.5"/><line class="cls-3" x1="19.92" y1="42.44" x2="7.36" y2="42.44"/><rect class="cls-5" x="1.47" y="55.86" width="5.89" height="5.89" transform="translate(-54.39 63.23) rotate(-90)"/><rect x="3.22" y="57.42" width="2.77" height="2.77" transform="translate(-54.2 63.42) rotate(-90)"/><rect class="cls-5" x="1.47" y="47.56" width="5.89" height="5.89" transform="translate(-46.09 54.92) rotate(-90)"/><rect x="3.22" y="49.12" width="2.77" height="2.77" transform="translate(-45.89 55.11) rotate(-90)"/><rect class="cls-5" x="1.47" y="39.5" width="5.89" height="5.89" transform="translate(-38.02 46.86) rotate(-90)"/><rect x="3.22" y="41.05" width="2.77" height="2.77" transform="translate(-37.83 47.05) rotate(-90)"/></svg>